<?xml version="1.0" standalone="no"?><!DOCTYPE svg PUBLIC "-//W3C//DTD SVG 1.1//EN" "http://www.w3.org/Graphics/SVG/1.1/DTD/svg11.dtd"><svg t="1719750830236" class="icon" viewBox="0 0 1024 1024" version="1.1" xmlns="http://www.w3.org/2000/svg" p-id="16707" width="200" height="200" xmlns:xlink="http://www.w3.org/1999/xlink"><path d="M737.412081 1024 314.817255 1024c-68.859399 0-124.887283-56.027883-124.887283-124.88626L189.929972 536.590669l269.22035 0 0-3.888338c-53.838135 4.45624-107.67627-2.885556-159.944745-21.354139-53.247722-18.77965-104.769226-49.231478-153.146292-90.444793-35.137275-29.933041-63.704282-67.955872-84.930515-113.00841-16.333067-34.701372-28.338823-73.576568-35.654015-115.565504-11.999616-68.930004-7.571004-123.051578-7.030729-129.002782l3.916989-42.066703 40.853132-10.511815c1.084642-0.284463 32.483996-8.501135 81.482173-8.501135 64.500368 0 162.622582 14.166853 263.858536 81.636683 42.998881 28.669331 78.262015 67.489272 104.846993 115.376203 1.543056 2.756627 3.036997 5.56544 4.53503 8.399834 41.186711-83.130624 90.289259-138.25498 146.261887-164.094011C740.860423 8.197231 821.233396 0.75311 875.12167 0.75311c46.523966 0 78.418572 5.437534 79.754932 5.666741l43.821571 7.548492 5.481534 44.177661c2.166214 17.954913 17.982541 177.565056-83.047741 291.810571-74.550699 84.31759-188.205801 119.219518-341.94353 101.753717l0 84.801586 283.130368 0 0 362.523071C862.319829 967.972117 806.291945 1024 737.412081 1024L737.412081 1024zM254.332108 600.992805l0 298.121958c0 33.359895 27.125252 60.485147 60.485147 60.485147l422.594826 0c33.359895 0 60.506635-27.126275 60.506635-60.485147L797.918716 600.992805 254.332108 600.992805 254.332108 600.992805zM82.326352 72.419275c-0.797109 11.876827-2.752534 55.253286 6.595849 108.806958 6.339014 36.350846 16.589902 69.739392 30.472292 99.203786 17.287756 36.713075 40.317974 67.470853 68.42452 91.426086 42.373677 36.089918 87.041473 62.596105 132.819493 78.747034 54.066319 19.06309 110.149458 23.804816 164.861446 13.704346l29.287372-5.431394 0-70.251015-1.03041 2.707511-27.559108-91.012695c-7.650817-25.298756-17.464778-48.792505-29.108304-69.811019-21.538324-38.818917-49.900681-70.11697-84.263358-93.047933C234.599815 45.344163 103.65798 67.912896 82.326352 72.419275L82.326352 72.419275zM518.888498 377.700892l33.230966 5.358744c148.194801 23.882582 255.665398-2.061842 320.763342-75.68241 77.694113-87.893838 69.860135-215.047613 67.726665-237.947878-8.450996-1.209478-32.740831-4.22294-65.487801-4.22294-47.475586 0-117.89953 6.417804-183.977744 36.89112-47.320052 21.843251-90.183865 75.526876-127.380936 159.531353-6.261248 14.117737-11.777572 27.844594-16.617529 40.701692L518.888498 377.700892 518.888498 377.700892zM518.888498 377.700892" fill="#272636" p-id="16708"></path></svg>